<svg width="288" height="198" viewBox="0 0 288 198" fill="none"
    xmlns="http://www.w3.org/2000/svg">
    <g style="mix-blend-mode:hard-light" clip-path="url(#clip0)">
        <path fill-rule="evenodd" clip-rule="evenodd" d="M261.818 188.514C239.59 177.452 194.631 158.809 144 158.809C93.4255 158.809 48.4582 177.434 26.1818 188.518V52.9364H13.0909V195.532C11.9651 196.192 11.3804 196.552 11.3804 196.552C5.09673 200.072 0 197.014 0 189.763V13.156C0.0115561 9.65745 1.40007 6.30661 3.86044 3.83976C6.32082 1.37291 9.65179 -0.00815425 13.1215 2.85263e-05H274.879C278.348 -0.00582531 281.677 1.37599 284.137 3.84234C286.597 6.30869 287.986 9.65818 288 13.156V189.763C288 197.032 282.938 199.993 276.532 196.508C276.532 196.508 275.978 196.161 274.909 195.536V52.932H261.818V188.514ZM13.0909 17.6352C13.0909 15.202 15.0458 13.2352 17.4153 13.2352H270.589C272.976 13.2352 274.913 15.202 274.913 17.6352V52.9364H13.0909V17.6352ZM67.6364 39.7012C71.2495 39.7012 74.1818 36.74 74.1818 33.0836C74.1818 29.4316 71.2495 26.466 67.6364 26.466C64.0233 26.466 61.0909 29.436 61.0909 33.088C61.0909 36.74 64.0233 39.7056 67.6364 39.7056V39.7012ZM50.1818 39.7012C53.7949 39.7012 56.7273 36.74 56.7273 33.0836C56.7273 29.4316 53.7949 26.466 50.1818 26.466C46.5687 26.466 43.6364 29.436 43.6364 33.088C43.6364 36.74 46.5687 39.7056 50.1818 39.7056V39.7012ZM32.7273 39.7012C36.3404 39.7012 39.2727 36.74 39.2727 33.0836C39.2727 29.4316 36.3404 26.466 32.7273 26.466C29.1142 26.466 26.1818 29.436 26.1818 33.088C26.1818 36.74 29.1142 39.7056 32.7273 39.7056V39.7012Z" fill="url(#paint0_linear)" />
    </g>
    <defs>
        <linearGradient id="paint0_linear" x1="288.664" y1="-7.73879e-06" x2="1.25095" y2="210.546" gradientUnits="userSpaceOnUse">
            <stop stop-color="#E8F552" />
            <stop offset="0.46875" stop-color="#1FF6E9" />
            <stop offset="1" stop-color="#F68AF1" />
        </linearGradient>
        <clipPath id="clip0">
            <rect width="288" height="198" fill="white" />
        </clipPath>
    </defs>
</svg>